<?xml version="1.0" encoding="UTF-8"?>
<svg id="Calque_1" xmlns="http://www.w3.org/2000/svg" version="1.1" viewBox="0 0 1000 1000">
  <!-- Generator: Adobe Illustrator 29.8.2, SVG Export Plug-In . SVG Version: 2.1.1 Build 3)  -->
  <defs>
    <style>
      .st0 {
        fill: #ded7d8;
      }

      .st1 {
        display: none;
      }
    </style>
  </defs>
  <g class="st1">
    <path class="st0" d="M578.12,659.86h-44.84v-44.84c0-18.43-14.94-33.37-33.37-33.37s-33.37,14.94-33.37,33.37v44.84h-44.84c-18.43,0-33.37,14.94-33.37,33.37s14.94,33.37,33.37,33.37h44.84v44.84c0,18.43,14.94,33.37,33.37,33.37s33.37-14.94,33.37-33.37v-44.84h44.84c18.43,0,33.37-14.94,33.37-33.37,0-18.43-14.94-33.37-33.37-33.37Z"/>
    <path class="st0" d="M842.84,180.24h-80.17v-47.73c0-68.54-55.76-124.31-124.31-124.31h-276.88c-68.54,0-124.31,55.76-124.31,124.31v47.73h-80.17c-82.28,0-149.22,66.94-149.22,149.22v518.43c0,79.73,64.86,144.58,144.58,144.58h695.1c79.73,0,144.58-64.86,144.58-144.58V329.46c0-82.28-66.94-149.22-149.22-149.22ZM303.9,132.51c0-31.75,25.83-57.58,57.58-57.58h276.88c31.75,0,57.58,25.83,57.58,57.58v47.73h-392.04v-47.73ZM157,246.97h685.83c45.48,0,82.49,37,82.49,82.49v22.82H74.52v-22.82c0-45.48,37-82.49,82.49-82.49ZM705.33,419.01h47.96v47.96h-47.96v-47.96ZM246.56,419.01h47.96v47.96h-47.96v-47.96ZM925.32,847.89c0,42.93-34.93,77.85-77.85,77.85H152.37c-42.93,0-77.85-34.93-77.85-77.85v-428.88h105.31v81.33c0,18.43,14.94,33.37,33.37,33.37h114.69c18.43,0,33.37-14.94,33.37-33.37v-81.33h277.35v81.33c0,18.43,14.94,33.37,33.37,33.37h114.69c18.43,0,33.37-14.94,33.37-33.37v-81.33h105.31v428.88h0Z"/>
  </g>
  <path class="st0" d="M55.44,439.64C73.26,209.64,256.79,26.1,486.8,8.28c19.81-1.54,36.78,14,36.78,33.88v263.67c0,9.01,3.58,17.66,9.95,24.03h0c13.27,13.28,34.79,13.28,48.07,0l92.81-92.81c13.27-13.27,34.79-13.27,48.07,0l40.48,40.48c13.27,13.27,13.27,34.79,0,48.07l-92.81,92.8c-13.27,13.27-13.27,34.79,0,48.07h0c6.37,6.37,15.02,9.96,24.03,9.96h263.67c19.87,0,35.41,16.97,33.88,36.78-17.82,230.01-201.36,413.54-431.36,431.36-19.81,1.54-36.78-14-36.78-33.88v-263.67c0-9.01-3.58-17.66-9.95-24.03h0c-13.27-13.27-34.79-13.27-48.07,0L106.67,981.87c-13.27,13.27-34.79,13.27-48.07,0l-40.48-40.48c-13.27-13.27-13.27-34.79,0-48.07l358.88-358.89c13.27-13.27,13.27-34.79,0-48.07h0c-6.37-6.38-15.02-9.96-24.03-9.96H89.31c-19.87,0-35.41-16.97-33.88-36.78Z"/>
</svg>