<?xml version="1.0" encoding="UTF-8"?>
<svg id="Calque_1" xmlns="http://www.w3.org/2000/svg" version="1.1" viewBox="0 0 1000 1000">
  <!-- Generator: Adobe Illustrator 29.8.2, SVG Export Plug-In . SVG Version: 2.1.1 Build 3)  -->
  <defs>
    <style>
      .st0, .st1, .st2, .st3, .st4, .st5 {
        fill: none;
        stroke: #ded7d8;
        stroke-miterlimit: 133.33;
      }

      .st0, .st3, .st4 {
        stroke-linecap: round;
      }

      .st0, .st5 {
        stroke-width: 60.25px;
      }

      .st1, .st4 {
        stroke-width: 60.53px;
      }

      .st2 {
        stroke-width: 69.5px;
      }

      .st6 {
        fill: #ded7d8;
      }

      .st7 {
        display: none;
      }

      .st3 {
        stroke-width: 69.16px;
      }
    </style>
  </defs>
  <g class="st7">
    <circle class="st2" cx="500" cy="502.95" r="138.99"/>
    <path class="st2" d="M581.79,46.7c-17.03-7.05-38.62-7.05-81.79-7.05s-64.76,0-81.79,7.05c-22.7,9.4-40.74,27.44-50.15,50.15-4.29,10.36-5.97,22.42-6.63,40-.97,25.84-14.22,49.75-36.61,62.68-22.39,12.93-49.73,12.44-72.59.36-15.55-8.22-26.83-12.79-37.96-14.26-24.37-3.21-49.01,3.39-68.5,18.36-14.62,11.22-25.42,29.92-47,67.31-21.59,37.39-32.38,56.09-34.79,74.36-3.21,24.36,3.4,49.01,18.36,68.5,6.83,8.9,16.43,16.38,31.32,25.74,21.9,13.76,35.98,37.2,35.98,63.06,0,25.86-14.09,49.29-35.98,63.05-14.9,9.36-24.49,16.85-31.32,25.75-14.96,19.5-21.56,44.13-18.36,68.5,2.41,18.27,13.2,36.97,34.79,74.36,21.59,37.39,32.38,56.09,47,67.3,19.5,14.96,44.14,21.56,68.5,18.36,11.12-1.46,22.4-6.04,37.95-14.26,22.86-12.08,50.2-12.56,72.59.36,22.39,12.93,35.64,36.85,36.61,62.69.66,17.58,2.34,29.63,6.63,40,9.4,22.7,27.44,40.74,50.15,50.15,17.03,7.05,38.62,7.05,81.79,7.05s64.76,0,81.79-7.05c22.7-9.41,40.74-27.45,50.14-50.15,4.29-10.36,5.98-22.42,6.63-40,.96-25.84,14.21-49.75,36.61-62.69,22.39-12.93,49.73-12.44,72.6-.36,15.55,8.22,26.83,12.79,37.95,14.25,24.37,3.21,49.01-3.39,68.5-18.35,14.62-11.22,25.42-29.92,47-67.31,21.59-37.39,32.38-56.08,34.79-74.36,3.21-24.37-3.4-49.01-18.36-68.5-6.83-8.9-16.43-16.38-31.32-25.74-21.89-13.76-35.98-37.19-35.98-63.05s14.09-49.29,35.98-63.04c14.9-9.36,24.5-16.84,31.33-25.75,14.96-19.49,21.56-44.14,18.36-68.5-2.4-18.27-13.2-36.97-34.79-74.36-21.59-37.39-32.38-56.09-47-67.31-19.5-14.96-44.14-21.56-68.5-18.36-11.12,1.46-22.4,6.04-37.95,14.26-22.86,12.08-50.2,12.57-72.59-.36-22.4-12.93-35.65-36.85-36.61-62.69-.66-17.58-2.34-29.63-6.63-40-9.4-22.7-27.44-40.74-50.14-50.15Z"/>
  </g>
  <g class="st7">
    <path class="st5" d="M683.75,134.74c99.92.56,154.03,4.99,189.33,40.29,40.37,40.37,40.37,105.33,40.37,235.27v275.63c0,129.93,0,194.9-40.37,235.27-40.37,40.37-105.33,40.37-235.27,40.37h-275.63c-129.93,0-194.9,0-235.27-40.37-40.37-40.36-40.37-105.33-40.37-235.27v-275.63c0-129.93,0-194.9,40.37-235.27,35.3-35.3,89.41-39.73,189.33-40.29"/>
    <path class="st0" d="M316.25,594.04h367.51"/>
    <path class="st0" d="M270.31,433.26h459.39"/>
    <path class="st0" d="M362.18,754.83h275.63"/>
    <path class="st5" d="M316.25,111.69c0-38.06,30.85-68.91,68.91-68.91h229.69c38.06,0,68.91,30.85,68.91,68.91v45.94c0,38.06-30.85,68.91-68.91,68.91h-229.69c-38.06,0-68.91-30.85-68.91-68.91v-45.94Z"/>
  </g>
  <g class="st7">
    <path class="st6" d="M875.91,97.63l1.21,34.86-1.21-34.86ZM709.3,119.47l-10-33.42h0l10,33.42ZM577.85,180.65l-17.47-30.19h0l17.47,30.19ZM127.09,100.28l-2.14,34.82,2.14-34.82ZM267.44,119.47l8.9-33.73h0l-8.9,33.73ZM420.11,184.03l-16.31,30.84,16.31-30.84ZM575.7,890.72l16.41,30.78-16.41-30.78ZM732.56,823.93l-8.9-33.73h0l8.9,33.73ZM871.4,804.84l2.18,34.82-2.18-34.82ZM424.3,890.72l-16.41,30.78h0l16.41-30.78ZM267.44,823.93l8.9-33.73h0l-8.9,33.73ZM128.6,804.84l-2.18,34.82h0l2.18-34.82ZM69.77,708.13V189.72H0v518.41h69.77ZM1000,708.13V186.72h-69.77v521.41h69.77ZM874.69,62.76c-52.95,1.84-122.15,7.35-175.4,23.29l20.01,66.84c44.15-13.22,105.77-18.59,157.81-20.4l-2.43-69.73ZM699.3,86.05c-46.28,13.86-98.34,40.92-138.92,64.4l34.94,60.38c39.56-22.89,85.83-46.53,123.98-57.95l-20.01-66.84ZM124.95,135.1c44.93,2.76,95.82,8.13,133.59,18.1l17.8-67.46c-44.69-11.79-101.22-17.46-147.11-20.28l-4.28,69.64ZM258.54,153.2c44.75,11.81,99.82,37.64,145.26,61.67l32.61-61.68c-46.3-24.48-107.22-53.5-160.07-67.45l-17.8,67.46ZM592.11,921.5c46.09-24.57,103.18-51.66,149.35-63.84l-17.8-67.46c-54.43,14.36-117.48,44.74-164.36,69.73l32.82,61.57ZM741.46,857.66c37.34-9.86,87.53-15.22,132.12-18.01l-4.36-69.63c-45.59,2.85-101.36,8.52-145.57,20.18l17.8,67.46ZM440.71,859.93c-46.88-24.99-109.93-55.37-164.36-69.73l-17.8,67.46c46.17,12.18,103.25,39.27,149.35,63.84l32.82-61.57ZM276.34,790.2c-44.21-11.67-99.98-17.33-145.57-20.18l-4.36,69.63c44.59,2.79,94.77,8.15,132.12,18.01l17.8-67.46ZM930.23,708.13c0,31.9-26.43,59.73-61.01,61.89l4.36,69.63c68.57-4.29,126.42-60.07,126.42-131.53h-69.77ZM1000,186.72c0-68.06-54.2-126.43-125.31-123.95l2.43,69.73c28.6-1,53.11,22.53,53.11,54.23h69.77ZM0,708.13C0,779.58,57.85,835.37,126.42,839.66l4.36-69.63c-34.58-2.16-61.01-30-61.01-61.89H0ZM559.29,859.93c-36.85,19.65-81.73,19.65-118.59,0l-32.82,61.57c57.36,30.58,126.86,30.58,184.22,0l-32.82-61.57ZM560.38,150.46c-38.05,22.02-85.42,23.12-123.97,2.74l-32.61,61.68c60.1,31.78,132.99,29.85,191.53-4.03l-34.94-60.38ZM69.77,189.72c0-32.43,25.69-56.43,55.18-54.62l4.28-69.64C56.75,61.01,0,119.99,0,189.72h69.77Z"/>
    <path class="st1" d="M500,229.54v704.46"/>
    <path class="st4" d="M174.42,375.86l186.05,46.51"/>
    <path class="st4" d="M825.58,375.86l-186.05,46.51"/>
    <path class="st4" d="M174.42,561.91l186.05,46.51"/>
    <path class="st4" d="M825.58,561.91l-186.05,46.51"/>
  </g>
  <g class="st7">
    <path class="st3" d="M409.06,595.46c-69.51-69.78-63.25-189.19,13.98-266.72l223.74-224.61c77.23-77.53,196.18-83.82,265.69-14.04,69.51,69.78,63.25,189.19-13.98,266.72l-111.87,112.31"/>
    <path class="st3" d="M589.4,410.84c69.51,69.78,63.25,189.19-13.98,266.72l-111.87,112.3-111.87,112.31c-77.23,77.53-196.18,83.81-265.69,14.04-69.51-69.78-63.25-189.19,13.98-266.72l111.87-112.31"/>
  </g>
  <path class="st6" d="M796.6,162.9c-47.6-18.77-97.35-33.13-148.75-42.64-5.39-1-10.8,1.62-13.36,6.47-6.15,11.7-12.62,25.16-18,37.37-2.24,5.08-7.57,8.07-13.07,7.31-69.52-9.6-138.45-9.61-206.8-.02-5.49.77-10.83-2.2-13.08-7.27-5.43-12.24-12.05-25.74-18.29-37.46-2.57-4.82-7.95-7.41-13.32-6.41-51.38,9.49-101.12,23.87-148.68,42.65-30.09,11.88-55.42,33.4-71.99,61.18C39.92,377.24,5.28,527.49,6.92,675.87c.56,50.4,27.31,96.87,70.28,123.2,59.22,36.29,117.3,61.67,174.66,80.2,5.23,1.69,10.94-.21,14.1-4.7,15.31-21.73,29.28-44.49,41.79-68.23,3.41-6.47.5-14.51-6.26-17.28-19.04-7.81-37.52-16.72-55.37-26.62-7.71-4.28-8.62-15.02-1.77-20.58l.23-.18c3.65-2.96,8.67-3.65,12.96-1.71,157.98,71.6,328.8,71.61,484.96.03,4.29-1.96,9.32-1.3,12.99,1.67l.21.17c6.87,5.55,5.97,16.31-1.75,20.6-17.92,9.95-36.48,18.88-55.56,26.71-6.76,2.77-9.67,10.82-6.26,17.29,12.49,23.7,26.43,46.51,41.77,68.25,3.17,4.48,8.87,6.38,14.09,4.69,57.44-18.54,115.59-43.93,174.85-80.27,43.03-26.38,69.75-72.94,70.27-123.41,1.71-166.88-43.05-316.11-124.34-451.48-16.69-27.79-41.99-49.41-72.14-61.3ZM336.16,639.12c-48.72,0-88.67-45.48-88.67-100.86s39.1-100.94,88.67-100.94,89.52,45.48,88.67,100.94c.08,55.38-39.1,100.86-88.67,100.86ZM663.83,639.12c-48.72,0-88.67-45.48-88.67-100.86s39.1-100.94,88.67-100.94,89.52,45.48,88.67,100.94c0,55.38-39.1,100.86-88.67,100.86Z"/>
</svg>