<?xml version="1.0" encoding="UTF-8"?>
<svg id="Calque_1" xmlns="http://www.w3.org/2000/svg" version="1.1" viewBox="0 0 1000 1000">
  <!-- Generator: Adobe Illustrator 29.8.2, SVG Export Plug-In . SVG Version: 2.1.1 Build 3)  -->
  <defs>
    <style>
      .st0 {
        stroke-linecap: round;
      }

      .st0, .st1 {
        fill: none;
        stroke: #ded7d8;
        stroke-miterlimit: 133.33;
        stroke-width: 60.25px;
      }
    </style>
  </defs>
  <path class="st1" d="M683.75,134.74c99.92.56,154.03,4.99,189.33,40.29,40.37,40.37,40.37,105.33,40.37,235.27v275.63c0,129.93,0,194.9-40.37,235.27-40.37,40.37-105.33,40.37-235.27,40.37h-275.63c-129.93,0-194.9,0-235.27-40.37-40.37-40.36-40.37-105.33-40.37-235.27v-275.63c0-129.93,0-194.9,40.37-235.27,35.3-35.3,89.41-39.73,189.33-40.29"/>
  <path class="st0" d="M316.25,594.04h367.51"/>
  <path class="st0" d="M270.31,433.26h459.39"/>
  <path class="st0" d="M362.18,754.83h275.63"/>
  <path class="st1" d="M316.25,111.69c0-38.06,30.85-68.91,68.91-68.91h229.69c38.06,0,68.91,30.85,68.91,68.91v45.94c0,38.06-30.85,68.91-68.91,68.91h-229.69c-38.06,0-68.91-30.85-68.91-68.91v-45.94Z"/>
</svg>