<?xml version="1.0" encoding="UTF-8"?>
<svg id="Calque_1" xmlns="http://www.w3.org/2000/svg" version="1.1" viewBox="0 0 1000 1000">
  <!-- Generator: Adobe Illustrator 29.6.1, SVG Export Plug-In . SVG Version: 2.1.1 Build 9)  -->
  <defs>
    <style>
      .st0 {
        fill: none;
        stroke: #ded7d8;
        stroke-miterlimit: 133.33;
        stroke-width: 69.5px;
      }
    </style>
  </defs>
  <circle class="st0" cx="500" cy="502.95" r="138.99"/>
  <path class="st0" d="M581.79,46.7c-17.03-7.05-38.62-7.05-81.79-7.05s-64.76,0-81.79,7.05c-22.7,9.4-40.74,27.44-50.15,50.15-4.29,10.36-5.97,22.42-6.63,40-.97,25.84-14.22,49.75-36.61,62.68-22.39,12.93-49.73,12.44-72.59.36-15.55-8.22-26.83-12.79-37.96-14.26-24.37-3.21-49.01,3.39-68.5,18.36-14.62,11.22-25.42,29.92-47,67.31-21.59,37.39-32.38,56.09-34.79,74.36-3.21,24.36,3.4,49.01,18.36,68.5,6.83,8.9,16.43,16.38,31.32,25.74,21.9,13.76,35.98,37.2,35.98,63.06,0,25.86-14.09,49.29-35.98,63.05-14.9,9.36-24.49,16.85-31.32,25.75-14.96,19.5-21.56,44.13-18.36,68.5,2.41,18.27,13.2,36.97,34.79,74.36,21.59,37.39,32.38,56.09,47,67.3,19.5,14.96,44.14,21.56,68.5,18.36,11.12-1.46,22.4-6.04,37.95-14.26,22.86-12.08,50.2-12.56,72.59.36,22.39,12.93,35.64,36.85,36.61,62.69.66,17.58,2.34,29.63,6.63,40,9.4,22.7,27.44,40.74,50.15,50.15,17.03,7.05,38.62,7.05,81.79,7.05s64.76,0,81.79-7.05c22.7-9.41,40.74-27.45,50.14-50.15,4.29-10.36,5.98-22.42,6.63-40,.96-25.84,14.21-49.75,36.61-62.69,22.39-12.93,49.73-12.44,72.6-.36,15.55,8.22,26.83,12.79,37.95,14.25,24.37,3.21,49.01-3.39,68.5-18.35,14.62-11.22,25.42-29.92,47-67.31,21.59-37.39,32.38-56.08,34.79-74.36,3.21-24.37-3.4-49.01-18.36-68.5-6.83-8.9-16.43-16.38-31.32-25.74-21.89-13.76-35.98-37.19-35.98-63.05s14.09-49.29,35.98-63.04c14.9-9.36,24.5-16.84,31.33-25.75,14.96-19.49,21.56-44.14,18.36-68.5-2.4-18.27-13.2-36.97-34.79-74.36-21.59-37.39-32.38-56.09-47-67.31-19.5-14.96-44.14-21.56-68.5-18.36-11.12,1.46-22.4,6.04-37.95,14.26-22.86,12.08-50.2,12.57-72.59-.36-22.4-12.93-35.65-36.85-36.61-62.69-.66-17.58-2.34-29.63-6.63-40-9.4-22.7-27.44-40.74-50.14-50.15Z"/>
</svg>