<?xml version="1.0" encoding="UTF-8"?>
<svg id="Calque_1" xmlns="http://www.w3.org/2000/svg" version="1.1" viewBox="0 0 800 800">
  <!-- Generator: Adobe Illustrator 29.8.2, SVG Export Plug-In . SVG Version: 2.1.1 Build 3)  -->
  <defs>
    <style>
      .st0 {
        fill: #dfd7d7;
        fill-rule: evenodd;
      }
    </style>
  </defs>
  <path class="st0" d="M608.67,295.98l-20.97,20.97c-7.71,7.71-19.82,8.11-27.04.88l-78.48-78.48c-7.22-7.22-6.83-19.33.88-27.04l20.97-20.97C362.74,71.13,239.46,37.32,259.98,16.8c21.31-21.31,227.13,31.75,345.33,125.57l1.65-1.65c7.71-7.71,19.82-8.11,27.04-.88l26.16,26.16c7.22,7.22,6.83,19.33-.88,27.04l-1.64,1.64c93.81,118.21,146.87,324.02,125.56,345.33s-54.33-102.76-174.53-244.04ZM479.94,276.46l43.6,43.6c8.03,8.03,8.03,21.04,0,29.07l-383.41,383.41c-20.07,20.07-52.6,20.07-72.67,0h0c-20.07-20.07-20.07-52.6,0-72.67l383.41-383.41c8.03-8.03,21.04-8.03,29.07,0Z"/>
</svg>